<?xml version="1.0" encoding="iso-8859-1"?>
<!-- Generator: Adobe Illustrator 19.0.0, SVG Export Plug-In . SVG Version: 6.00 Build 0)  -->
<svg version="1.1" id="Layer_1" xmlns="http://www.w3.org/2000/svg" xmlns:xlink="http://www.w3.org/1999/xlink" x="0px" y="0px"
	 viewBox="0 0 512.001 512.001" style="enable-background:new 0 0 512.001 512.001;" xml:space="preserve">
<g>
	<g>
		<path d="M340.553,239.393c-3.328-3.329-8.727-3.329-12.058,0L197.743,370.146c-1.615,1.613-2.514,3.809-2.498,6.091
			c0.017,2.283,0.947,4.464,2.584,6.054l0.682,0.648c25.576,25.577,25.576,67.193,0,92.77c-25.577,25.576-67.194,25.577-92.77,0
			c-11.314-11.314-18.087-26.346-19.07-42.327c-0.264-4.297-3.691-7.722-7.987-7.987c-15.981-0.983-31.012-7.756-42.327-19.07
			c-22.684-22.683-25.713-58.11-7.205-84.238c2.722-3.843,1.813-9.165-2.029-11.888c-3.842-2.722-9.165-1.813-11.888,2.029
			c-23.328,32.932-19.517,77.578,9.062,106.156c12.54,12.54,28.703,20.654,46.115,23.271c2.617,17.412,10.731,33.575,23.27,46.115
			c16.114,16.115,37.276,24.172,58.444,24.17c21.164-0.001,42.333-8.058,58.445-24.17c30.448-30.448,32.13-78.934,5.042-111.375
			l124.942-124.942C343.884,248.121,343.884,242.722,340.553,239.393z"/>
	</g>
</g>
<g>
	<g>
		<path d="M487.832,93.618c-12.54-12.54-28.703-20.654-46.115-23.27c-2.617-17.412-10.731-33.575-23.27-46.115
			c-32.226-32.226-84.662-32.226-116.889,0c-30.446,30.446-32.13,78.929-5.042,111.373l-160.85,160.85
			c-27.549-22.933-67.62-25.639-98.033-5.795c-3.944,2.573-5.056,7.857-2.482,11.801c2.573,3.945,7.858,5.056,11.801,2.482
			c25.797-16.827,60.355-13.209,82.174,8.608l0.648,0.682c1.591,1.637,3.771,2.568,6.054,2.584c0.02,0,0.041,0,0.061,0
			c2.26,0,4.43-0.898,6.029-2.498l172.468-172.465c1.615-1.615,2.514-3.809,2.498-6.091c-0.017-2.283-0.947-4.464-2.584-6.054
			l-0.682-0.647c-25.576-25.577-25.576-67.194,0-92.77c25.577-25.576,67.194-25.576,92.77,0
			c11.314,11.315,18.087,26.346,19.07,42.327c0.264,4.297,3.691,7.723,7.987,7.987c15.981,0.983,31.013,7.756,42.327,19.07
			c25.576,25.577,25.576,67.193,0,92.77c-25.576,25.576-67.193,25.576-92.77,0l-0.648-0.682c-1.591-1.637-3.771-2.568-6.054-2.584
			c-2.298,0.01-4.477,0.883-6.091,2.498l-21.906,21.906c-3.33,3.33-3.33,8.73,0,12.059c3.33,3.33,8.73,3.33,12.06,0l16.095-16.095
			c32.439,27.087,80.925,25.406,111.375-5.042C520.058,178.281,520.058,125.844,487.832,93.618z"/>
	</g>
</g>
<g>
</g>
<g>
</g>
<g>
</g>
<g>
</g>
<g>
</g>
<g>
</g>
<g>
</g>
<g>
</g>
<g>
</g>
<g>
</g>
<g>
</g>
<g>
</g>
<g>
</g>
<g>
</g>
<g>
</g>
</svg>
