<?xml version="1.0" encoding="iso-8859-1"?>
<!-- Generator: Adobe Illustrator 19.0.0, SVG Export Plug-In . SVG Version: 6.00 Build 0)  -->
<svg version="1.1" id="Layer_1" xmlns="http://www.w3.org/2000/svg" xmlns:xlink="http://www.w3.org/1999/xlink" x="0px" y="0px"
	 viewBox="0 0 512 512" style="enable-background:new 0 0 512 512;" xml:space="preserve">
<g>
	<g>
		<g>
			<path d="M511.852,177.713c-2.956-55.963-49.21-99.8-105.303-99.8H105.439c-56.086,0-102.334,43.837-105.289,99.799
				c0,0.002,0,0.004,0,0.008C0.05,179.573,0,385.924,0,385.924c0,26.557,21.6,48.163,48.15,48.163h415.688
				c26.555,0,48.161-21.605,48.161-48.163C512,385.924,511.95,179.576,511.852,177.713z M105.439,100.174h301.111
				c40.251,0,74.081,28.605,81.622,66.994h-22.896c-7.171-26.269-30.92-44.737-58.721-44.737h-51.778
				c-6.146,0-11.13,4.984-11.13,11.13s4.984,11.13,11.13,11.13h51.778c15.475,0,28.975,9.013,35.129,22.476h-11.08
				c-27.759,0-50.526,21.792-52.084,49.169c-38.905-12.281-80.717-18.423-122.523-18.423c-41.807,0-83.614,6.141-122.516,18.422
				c-1.558-27.376-24.328-49.168-52.094-49.168h-11.08c6.154-13.462,19.654-22.476,35.13-22.476h155.29
				c6.146,0,11.13-4.984,11.13-11.13s-4.984-11.13-11.13-11.13h-155.29c-27.802,0-51.551,18.468-58.721,44.737H23.829
				C31.369,128.779,65.193,100.174,105.439,100.174z M378.435,239.729v37.797c0,16.491-13.422,29.907-29.919,29.907H163.473
				c-16.491,0-29.907-13.417-29.907-29.907v-37.797C210.817,213.605,301.175,213.605,378.435,239.729z M489.739,385.924
				c0,14.281-11.619,25.902-25.901,25.902H48.15c-14.276,0-25.889-11.62-25.889-25.902v-7.535h66.221
				c6.147,0,11.13-4.984,11.13-11.13s-4.983-11.13-11.13-11.13H22.261V189.429h59.125c16.498,0,29.919,13.417,29.919,29.906v58.19
				c0,28.767,23.403,52.168,52.168,52.168h273.546c6.146,0,11.13-4.984,11.13-11.13c0-6.146-4.984-11.13-11.13-11.13H391.23
				c5.955-8.476,9.464-18.786,9.464-29.907v-58.19c0-16.49,13.417-29.906,29.907-29.906h59.137V385.924z"/>
			<path d="M305.665,144.692h1.113c6.146,0,11.13-4.984,11.13-11.13s-4.984-11.13-11.13-11.13h-1.113
				c-6.146,0-11.13,4.984-11.13,11.13S299.518,144.692,305.665,144.692z"/>
			<path d="M134.673,356.129h-1.113c-6.147,0-11.13,4.984-11.13,11.13s4.983,11.13,11.13,11.13h1.113
				c6.147,0,11.13-4.984,11.13-11.13S140.82,356.129,134.673,356.129z"/>
		</g>
	</g>
</g>
<g>
</g>
<g>
</g>
<g>
</g>
<g>
</g>
<g>
</g>
<g>
</g>
<g>
</g>
<g>
</g>
<g>
</g>
<g>
</g>
<g>
</g>
<g>
</g>
<g>
</g>
<g>
</g>
<g>
</g>
</svg>
