<?xml version="1.0" encoding="iso-8859-1"?>
<!-- Generator: Adobe Illustrator 19.0.0, SVG Export Plug-In . SVG Version: 6.00 Build 0)  -->
<svg version="1.1" id="Layer_1" xmlns="http://www.w3.org/2000/svg" xmlns:xlink="http://www.w3.org/1999/xlink" x="0px" y="0px"
	 viewBox="0 0 512.001 512.001" style="enable-background:new 0 0 512.001 512.001;" xml:space="preserve">
<g>
	<g>
		<path d="M235.347,314.231l-24.634-14.909l-41.207,5.267c-12.772,1.633-24.036,3.072-37.104,4.743
			c-11.389,1.456-22.683-4.172-27.088-14.082c-9.4-21.145-32.799-77.143-32.799-77.143l47.447,64.075
			c3.987,5.385,10.547,8.121,17.076,7.283l77.854-9.952c10.053-1.285,17.162-10.478,15.876-20.531
			c-1.285-10.053-10.477-17.161-20.531-15.876l-67.181,8.588l-45.767-61.807l21.172,18.559l1.282-4.445
			c4.162-14.528-4.24-29.679-18.769-33.841c-6.566-1.881-13.3-2.756-19.999-2.698c-0.029,0-0.058,0-0.087,0
			c-12.527,0.124-24.925,3.569-35.844,10.197c-16.782,10.188-28.548,26.92-32.459,46.159L0.97,280.937
			c-2.894,14.232,0.76,29.011,9.949,40.256c8.785,10.751,21.743,17.17,35.554,17.715c6.417,0.356,17.385,0.046,44.769,0.428
			l-65.595,55.688c-9.273,7.871-10.408,21.769-2.536,31.041c7.871,9.273,21.77,10.408,31.041,2.536l111.52-94.675
			c4.376-3.715,7.018-8.882,7.63-14.34l43.039,26.046c8.674,5.249,19.957,2.469,25.202-6.2
			C246.793,330.761,244.018,319.478,235.347,314.231z"/>
	</g>
</g>
<g>
	<g>
		<circle cx="118.645" cy="118.673" r="40.51"/>
	</g>
</g>
<g>
	<g>
		<path d="M509.504,276.694c-1.804-0.659-4.064,0.055-4.952,2.484c-2.435,6.671-6.358,13.883-11.02,19.906
			c-8.589,11.332-18.219,16.982-28.604,19.687c-8.4-5.924-6.725-4.505-99.295-18.2c0,0-4.628-6.266-9.885-13.307
			c-6.866,9.242-16.74,19.569-27.537,15.754c-12.586-4.446-12.617-24.072-10.907-37.113l-0.246,0.059
			c-9.24,2.195-16.488,9.358-18.791,18.573l-9.498,5.814l-10.108-15.023c-2.602-3.866-7.845-4.892-11.71-2.29
			c-3.866,2.601-4.892,7.844-2.29,11.71l41.247,61.307c2.602,3.867,7.845,4.891,11.71,2.29c3.866-2.601,4.892-7.844,2.29-11.71
			l-13.247-19.69c2.214-0.038,4.446-0.464,6.587-1.334c3.228-1.312,6.861-1.22,10.026,0.238c3.164,1.458,5.587,4.158,6.691,7.464
			c4.39,13.15,11.56,33.352,17.953,45.539l-14.665,51.651c-1.579,5.564,1.65,11.353,7.213,12.934
			c5.574,1.582,11.357-1.66,12.934-7.213l13.8-48.607c13.99-1.591,37.267-4.434,59.016-7.239
			c-2.362-5.943-3.689-12.587-3.689-19.597c0-3.106,2.518-5.625,5.625-5.625c3.106,0,5.625,2.518,5.625,5.625
			c0,8.081,2.321,15.543,5.979,21.635c6.362,10.596,17.881,24.04,29.044,30.22l11.322,25.041c2.382,5.271,8.585,7.61,13.855,5.227
			c5.269-2.383,7.61-8.586,5.227-13.855l-12.797-28.302c1.906-11.854,1.711-29.744-0.632-40.969
			c-0.93-4.453-3.455-12.297-7.088-16.756c11.097-6.958,19.364-16.537,24.976-27.595c3.7-7.137,6.828-15.902,8.285-24.531
			C512.248,279.123,511.253,277.332,509.504,276.694z"/>
	</g>
</g>
<g>
	<g>
		<path d="M343.259,260.414c-6.931-2.448-13.946-0.484-15.205,3.08c-1.259,3.563-3.404,27.529,3.527,29.979
			c6.932,2.448,20.316-17.548,21.575-21.111S350.191,262.862,343.259,260.414z"/>
	</g>
</g>
<g>
</g>
<g>
</g>
<g>
</g>
<g>
</g>
<g>
</g>
<g>
</g>
<g>
</g>
<g>
</g>
<g>
</g>
<g>
</g>
<g>
</g>
<g>
</g>
<g>
</g>
<g>
</g>
<g>
</g>
</svg>
