<?xml version="1.0" encoding="iso-8859-1"?>
<!-- Generator: Adobe Illustrator 18.0.0, SVG Export Plug-In . SVG Version: 6.00 Build 0)  -->
<!DOCTYPE svg PUBLIC "-//W3C//DTD SVG 1.1//EN" "http://www.w3.org/Graphics/SVG/1.1/DTD/svg11.dtd">
<svg version="1.1" id="Capa_1" xmlns="http://www.w3.org/2000/svg" xmlns:xlink="http://www.w3.org/1999/xlink" x="0px" y="0px"
	 viewBox="0 0 487.438 487.438" style="enable-background:new 0 0 487.438 487.438;" xml:space="preserve">
<path d="M457.757,437.596c-0.523-19.986-7.414-48.243-36.644-71.304c14.301-82.258,14.169-165.215-0.378-247.378
	c28.506-23.245,35.081-51.298,35.439-71.143c0.402-22.258-6.72-38.911-7.022-39.609c-1.079-2.482-3.276-4.303-5.916-4.901
	c-37.969-8.609-63.467,1.454-78.175,11.41c-11.888,8.049-18.824,17.34-21.79,21.937c-66.741-14.181-133.97-13.743-200.583,1.297
	c-2.888-4.454-9.95-13.922-22.174-22.034C105.725,6.054,80.14-3.76,42.246,5.222c-2.63,0.624-4.807,2.461-5.863,4.948
	c-0.298,0.701-7.284,17.42-6.701,39.673C30.21,70.01,37.218,98.6,67.121,121.774c-13.621,81.542-13.085,163.738,1.62,245.126
	c-30.235,23.551-37.11,52.459-37.478,72.768c-0.402,22.258,6.72,38.91,7.022,39.608c1.079,2.482,3.276,4.303,5.916,4.901
	c10.107,2.292,19.327,3.261,27.699,3.261c23.075,0,39.684-7.364,50.476-14.67c16.193-10.963,23.208-24.244,23.498-24.804
	c0.193-0.372,0.346-0.754,0.479-1.139c32.193,6.801,64.502,10.216,96.807,10.216c33.286,0,66.566-3.629,99.684-10.851
	c0.109,0.27,0.232,0.536,0.372,0.799c0.296,0.557,7.42,13.773,23.706,24.581c10.688,7.093,27.01,14.184,49.544,14.184
	c8.648,0,18.216-1.045,28.726-3.536c2.63-0.624,4.807-2.46,5.863-4.948C451.353,476.568,458.34,459.848,457.757,437.596z
	 M386.323,169.39c-1.775-17.299-14.502-31.448-31.953-31.448h-32.063c-6.625,0-12.994,2.026-18.417,5.86
	c-0.292,0.206-0.562,0.433-0.819,0.667c-17.363-10.422-37.668-16.424-59.352-16.424c-21.683,0-41.988,6.002-59.35,16.424
	c-0.258-0.235-0.527-0.461-0.819-0.667c-5.426-3.834-11.795-5.86-18.419-5.86h-32.06c-17.453,0-30.246,14.143-31.956,31.448
	L89.383,274.683c0,17.623,14.336,31.96,31.958,31.96h25.356c3.766,5.81,8.055,11.299,12.836,16.381H79.327
	c-9.225-76.378-5.766-153.258,10.418-229.379c0.976-4.592-1.955-9.106-6.547-10.082c-4.59-0.979-9.106,1.954-10.082,6.546
	c-0.873,4.107-1.696,8.217-2.498,12.328C38.023,71.703,46.642,33.203,50.605,20.794c43.068-8.594,65.569,10.913,74.277,21.483
	c-3.947,1.047-7.893,2.128-11.834,3.278c-4.507,1.315-7.094,6.034-5.778,10.541c1.083,3.711,4.475,6.121,8.155,6.121
	c0.788,0,1.59-0.111,2.385-0.343c83.501-24.367,168.275-24.781,251.968-1.235c4.515,1.272,9.213-1.36,10.484-5.88
	c1.271-4.519-1.361-9.213-5.881-10.484c-4.39-1.235-8.783-2.39-13.179-3.498c8.825-10.734,31.145-29.949,73.815-21.867
	c4.015,12.231,12.715,49.71-18.01,80.505c-0.972-4.736-1.975-9.471-3.043-14.201c-1.033-4.58-5.586-7.453-10.163-6.419
	c-4.579,1.034-7.453,5.584-6.419,10.164c17.508,77.548,21.781,156.013,12.814,234.065h-82.29
	c4.782-5.082,9.069-10.571,12.837-16.381h25.353c17.621,0,32.935-14.365,31.957-31.96
	C396.587,248.238,386.323,169.39,386.323,169.39z M323.586,268.664c-8.39-11.284-21.087-18.747-38.667-22.71
	c0.054-0.857,0.09-1.719,0.09-2.589c0-23.893-21.012-23.893-28.921-23.893c-1.899,0-3.884,0.04-5.937,0.082
	c-4.185,0.086-8.68,0.086-12.864,0c-2.053-0.042-4.037-0.082-5.936-0.082c-7.91,0-28.922,0-28.922,23.893
	c0,0.963,0.045,1.914,0.11,2.861c-17.39,4.081-29.916,11.601-38.143,22.889c-3.975,5.455-6.865,11.785-8.722,19.082
	c-6.883-13.615-10.629-28.816-10.629-44.478c0-54.409,44.265-98.673,98.673-98.673c54.409,0,98.674,44.265,98.674,98.673
	c0,15.221-3.535,30.01-10.051,43.328C330.423,280.044,327.515,273.948,323.586,268.664z M243.719,267.654
	c-13.393,0-24.29-10.896-24.29-24.289c0-5.433,0-6.893,11.922-6.893c1.788,0,3.656,0.039,5.589,0.078
	c2.178,0.045,4.43,0.09,6.779,0.09c2.349,0,4.601-0.046,6.778-0.09c1.933-0.039,3.802-0.078,5.59-0.078
	c11.921,0,11.921,1.46,11.921,6.893C268.009,256.758,257.112,267.654,243.719,267.654z M118.111,169.901
	c1.018-8.185,6.711-14.958,14.96-14.958h32.06c1.329,0,2.635,0.186,3.896,0.529c-25.049,21.235-40.98,52.914-40.98,88.248
	c0,16.01,3.335,31.611,9.536,45.925h-16.242c-8.106,0-15.287-6.487-14.952-14.539C107.489,248.664,115.246,192.956,118.111,169.901z
	 M381.05,275.105c0.335,8.051-6.845,14.539-14.951,14.539h-16.241c6.2-14.314,9.536-29.915,9.536-45.925
	c0-35.335-15.931-67.013-40.98-88.248c1.261-0.343,2.565-0.528,3.895-0.528h32.063c8.247,0,13.918,5.431,14.957,14.958
	C372.196,196.208,379.949,248.664,381.05,275.105z M436.833,466.644c-47.748,9.53-70.222-15.488-76.641-24.568
	c3.302-0.847,6.603-1.718,9.9-2.637c4.522-1.261,7.165-5.949,5.904-10.471c-1.261-4.522-5.95-7.166-10.471-5.905
	c-80.561,22.46-162.35,22.624-243.095,0.486c-4.525-1.243-9.203,1.422-10.444,5.95c-1.241,4.527,1.423,9.204,5.95,10.445
	c3.718,1.02,7.438,1.977,11.16,2.905c-6.003,8.825-28.22,34.859-76.678,25.677c-4.1-12.493-13.087-51.328,20.046-82.477
	c0.699,3.353,1.418,6.706,2.165,10.056c0.882,3.959,4.394,6.652,8.288,6.652c0.612,0,1.234-0.067,1.857-0.206
	c4.582-1.022,7.469-5.564,6.446-10.146c-3.884-17.419-7.085-34.885-9.633-52.382h100.675c3.709,0,6.989-2.405,8.105-5.941
	c1.116-3.537-0.188-7.389-3.226-9.518c-6.288-4.409-11.964-9.493-16.974-15.104c0.144-20.218,5.133-39.605,37.032-46.854
	c5.654,10.686,15.857,18.609,28.017,21.164v28.057c0,4.694,3.806,8.5,8.5,8.5c4.694,0,8.5-3.806,8.5-8.5V283.77
	c12.25-2.574,22.51-10.596,28.138-21.402c32.036,6.96,37.483,26.018,37.787,46.11c-5.219,6.004-11.194,11.421-17.849,16.087
	c-3.037,2.129-4.343,5.981-3.226,9.518c1.116,3.537,4.397,5.941,8.105,5.941h102.851c-2.281,16.329-5.131,32.637-8.573,48.91
	c-0.971,4.593,1.965,9.104,6.558,10.075c0.593,0.125,1.185,0.186,1.768,0.186c3.931,0,7.461-2.743,8.308-6.743
	c0.48-2.27,0.936-4.542,1.394-6.813C449.288,416.267,440.768,454.321,436.833,466.644z"/>
<g>
</g>
<g>
</g>
<g>
</g>
<g>
</g>
<g>
</g>
<g>
</g>
<g>
</g>
<g>
</g>
<g>
</g>
<g>
</g>
<g>
</g>
<g>
</g>
<g>
</g>
<g>
</g>
<g>
</g>
</svg>
