<?xml version="1.0" encoding="iso-8859-1"?>
<!-- Generator: Adobe Illustrator 18.0.0, SVG Export Plug-In . SVG Version: 6.00 Build 0)  -->
<!DOCTYPE svg PUBLIC "-//W3C//DTD SVG 1.1//EN" "http://www.w3.org/Graphics/SVG/1.1/DTD/svg11.dtd">
<svg version="1.1" id="Capa_1" xmlns="http://www.w3.org/2000/svg" xmlns:xlink="http://www.w3.org/1999/xlink" x="0px" y="0px"
	 viewBox="0 0 376.064 376.064" style="enable-background:new 0 0 376.064 376.064;" xml:space="preserve">
<g>
	<path d="M283.786,175.921c0,0-89.498,0.043-90.358,0.107l-6.022-11.652c-0.793-1.535-2.21-2.653-3.887-3.069
		c-1.676-0.416-3.452-0.089-4.87,0.899L127.2,198.006l-16.253-47.791c15.581-3.045,28.747-11.804,37.585-24.332
		c1.182,0.152,2.338,0.239,3.453,0.239c12.413,0,20.474-8.699,20.878-9.146c2.226-2.454,2.041-6.249-0.415-8.475
		c-2.455-2.228-6.25-2.04-8.475,0.414c-0.048,0.053-3.409,3.674-8.763,4.831c2.357-5.649,3.991-11.771,4.77-18.263
		c0.2-1.665-0.306-3.339-1.395-4.613c-1.09-1.275-2.664-2.036-4.339-2.099l-39.809-1.474c-4.877-9.022-14.412-14.845-24.866-14.845
		c-1.407,0-2.806,0.104-4.19,0.313L75.335,51.042c-1.002-2.165-3.215-3.542-5.576-3.481c-2.385,0.052-4.513,1.512-5.42,3.718
		l-6.715,16.336L43.207,47.62c-1.522-2.112-4.234-2.997-6.71-2.2c-2.478,0.801-4.156,3.107-4.156,5.71v230.303
		c0,46.699,33.336,85.755,77.46,94.631c-3.023-4.29-4.805-9.514-4.805-15.148c0-7.043,2.744-13.666,7.724-18.648
		c4.981-4.983,11.603-7.728,18.646-7.728c0.002,0,0.004,0,0.005,0l103.482-0.004l21.923-59.143
		c-27.027-26.639-68.929-29.924-99.664-7.799c-2.689,1.936-6.438,1.325-8.375-1.363c-1.936-2.69-1.325-6.44,1.364-8.375
		c34.049-24.51,79.953-22.013,111.183,5.375l10.172-27.442c1.151-3.106,4.602-4.692,7.711-3.54c3.107,1.151,4.692,4.605,3.541,7.711
		l-38.055,102.661c-0.872,2.353-3.116,3.914-5.626,3.914L131.37,346.54c0,0-0.001,0-0.002,0c-3.838,0-7.446,1.495-10.161,4.211
		c-2.715,2.716-4.211,6.327-4.211,10.167c-0.001,7.921,6.447,14.637,14.373,14.638h184.534c1.657,0,3-1.343,3-3V211.038
		C318.903,191.675,303.149,175.921,283.786,175.921z"/>
	<path d="M262.593,162.256c44.734,0,81.13-36.394,81.13-81.128C343.723,36.393,307.328,0,262.593,0
		c-44.732,0-81.126,36.393-81.126,81.128C181.467,125.862,217.861,162.256,262.593,162.256z"/>
</g>
<g>
</g>
<g>
</g>
<g>
</g>
<g>
</g>
<g>
</g>
<g>
</g>
<g>
</g>
<g>
</g>
<g>
</g>
<g>
</g>
<g>
</g>
<g>
</g>
<g>
</g>
<g>
</g>
<g>
</g>
</svg>
