<?xml version="1.0" encoding="iso-8859-1"?>
<!-- Generator: Adobe Illustrator 18.0.0, SVG Export Plug-In . SVG Version: 6.00 Build 0)  -->
<!DOCTYPE svg PUBLIC "-//W3C//DTD SVG 1.1//EN" "http://www.w3.org/Graphics/SVG/1.1/DTD/svg11.dtd">
<svg version="1.1" id="Capa_1" xmlns="http://www.w3.org/2000/svg" xmlns:xlink="http://www.w3.org/1999/xlink" x="0px" y="0px"
	 viewBox="0 0 444.851 444.851" style="enable-background:new 0 0 444.851 444.851;" xml:space="preserve">
<g>
	<path d="M422.48,339.224l1-5.229c0.468-2.447-0.099-4.979-1.567-6.992c-1.467-2.013-3.703-3.328-6.176-3.632l-54.965-6.75
		l-21.309-28.007c0.849-1.475,4.553-7.711,4.553-7.711c13.045,11.556,29.114,17.462,45.494,17.462
		c15.906,0,32.106-5.571,46.108-16.944c1.953-1.586,3.153-3.918,3.309-6.429c0.155-2.511-0.747-4.973-2.489-6.788L407.164,237.7
		c2.972-12.551-1.642-25.747-11.622-33.741l8.061-23.088c1.18-3.378,0.246-7.135-2.379-9.567c-2.624-2.432-6.44-3.079-9.721-1.647
		l-13.729,5.997l3.253-22.402c0.566-3.9-1.47-7.714-5.025-9.414c-3.556-1.699-7.802-0.888-10.481,2.002l-70.676,76.238
		L42.836,130.263c-19.589-7.165-29.696-28.931-22.531-48.519c3.471-9.489,10.43-17.059,19.594-21.314
		c9.165-4.256,19.437-4.688,28.926-1.217c4.668,1.709,9.836-0.693,11.544-5.36c1.708-4.668-0.692-9.836-5.36-11.544
		c-14.003-5.123-29.165-4.484-42.69,1.796C18.793,50.384,8.523,61.556,3.401,75.56c-10.575,28.911,4.342,61.033,33.252,71.607
		l12.743,4.661c-0.192,0.494,0.195-0.505,0,0c-3.856,6.74-9.415,18.695-12.141,31.414c-4.255,19.859-3.679,48.905,21.782,76.93
		l-27.321,66.89c-0.798,1.954-0.884,4.126-0.243,6.137l21.207,66.505c1.202,3.769,4.699,6.266,8.568,6.266
		c0.377,0,0.758-0.023,1.14-0.072l12.793-1.625c2.648-0.336,5.01-1.83,6.448-4.079c1.438-2.248,1.804-5.02,0.999-7.564
		l-15.102-47.738l57.207-51.315l53.734,30.76c0.107,0.062-0.11-0.057,0,0c22.221,11.604,45.66,17.916,67.785,17.916
		c7.715,0,15.197-0.732,22.391-2.154l42.466,48.756c1.503,1.726,3.607,2.814,5.885,3.043l71.603,7.213
		c0.306,0.031,0.609,0.046,0.91,0.046c4.27,0,8.014-3.033,8.831-7.31l1-5.229c0.468-2.447-0.099-4.979-1.567-6.992
		c-1.467-2.013-3.703-3.328-6.176-3.632l-53.875-6.616l-24.307-50.016c1.396-1.123,2.766-2.284,4.107-3.483l17.727,20.352
		c1.503,1.726,3.607,2.814,5.885,3.044l71.604,7.213c0.306,0.031,0.609,0.046,0.91,0.046
		C417.919,346.535,421.662,343.502,422.48,339.224z"/>
	<path d="M430.238,357.555c-8.057,0-14.612,6.555-14.612,14.612c0,8.057,6.555,14.612,14.612,14.612
		c8.057,0,14.612-6.555,14.612-14.612C444.851,364.11,438.296,357.555,430.238,357.555z"/>
</g>
<g>
</g>
<g>
</g>
<g>
</g>
<g>
</g>
<g>
</g>
<g>
</g>
<g>
</g>
<g>
</g>
<g>
</g>
<g>
</g>
<g>
</g>
<g>
</g>
<g>
</g>
<g>
</g>
<g>
</g>
</svg>
