<?xml version="1.0" encoding="iso-8859-1"?>
<!-- Generator: Adobe Illustrator 18.0.0, SVG Export Plug-In . SVG Version: 6.00 Build 0)  -->
<!DOCTYPE svg PUBLIC "-//W3C//DTD SVG 1.1//EN" "http://www.w3.org/Graphics/SVG/1.1/DTD/svg11.dtd">
<svg version="1.1" id="Capa_1" xmlns="http://www.w3.org/2000/svg" xmlns:xlink="http://www.w3.org/1999/xlink" x="0px" y="0px"
	 viewBox="0 0 480.199 480.199" style="enable-background:new 0 0 480.199 480.199;" xml:space="preserve">
<g>
	<g>
		<path d="M479.68,260.999c-1.155-4.802-4.111-8.865-8.322-11.442l-38.55-23.59c0,0-12.877-63.11-13.259-63.714
			c-2.125-7.819-8.234-14.34-16.611-16.575l-27.625-7.366c-1.979-0.528-4.015-0.796-6.05-0.796c-2.76,0-5.429,0.493-7.922,1.39
			c-0.864,0.333-1.421,0.572-2.091,0.927l-73.597,38.633c-0.104,0.056-0.207,0.113-0.308,0.175c-5.094,3.09-8.31,8.096-9.329,13.537
			c-0.061,0.218-0.113,0.439-0.149,0.664l-9.026,56.526c-1.755,10.977,5.744,21.336,16.75,23.098l0.549,0.085
			c1.058,0.169,2.135,0.255,3.202,0.255c0,0,0,0,0.001,0c9.95,0,18.313-7.14,19.885-16.978l7.417-46.482l20.274-10.721
			L297.893,329.34l-53.684,12.65c-11.381,1.932-19.146,12.706-17.341,24.122l0.1,0.638c1.633,10.333,10.404,17.833,20.856,17.833
			c1.106,0,2.224-0.175,3.322-0.349c0.147-0.022-0.145,0.034,0,0c0,0,65.239-14.937,71.35-17.09
			c5.518-2.033,10.028-6.314,12.296-12.031c0.071-0.179-0.053,0.184,0,0l11.876-40.895l56.994,19.646l11.806,66.665
			c1.749,10.174,10.5,17.559,20.809,17.559c1.2,0,2.412-0.103,3.582-0.305l0.64-0.108c11.482-1.975,19.219-12.926,17.24-24.441
			c0,0-13.315-78.318-14.655-82.104c-1.865-5.858-6.243-10.863-12.396-13.283c-0.052-0.021,0.052,0.02,0,0l-40.152-14.526
			l9.726-36.465c1.599,2.694,3.861,4.944,6.544,6.523c0.047,0.031,0.085,0.072,0.134,0.102l45.122,27.609
			c2.908,1.78,6.24,2.721,9.637,2.721c6.493,0,12.391-3.304,15.776-8.837C480.051,270.761,480.834,265.799,479.68,260.999z"/>
		<path d="M221.135,373.095c-0.345-0.827-0.87-1.566-1.537-2.164l-18.633-16.679l9.781-41.359c27.236,0,36.259-22.41,36.551-23.189
			c1.162-3.103-0.413-6.562-3.516-7.723l-20.185-7.555c-1.675-6.485-6.718-11.596-13.104-13.404l-1.336-11.906
			c-0.266-2.371-1.911-4.359-4.19-5.064c-2.28-0.705-4.76,0.008-6.317,1.815l-3.653,4.239l-2.876-9.182
			c-0.778-2.482-3.067-4.182-5.669-4.206c-0.019,0-0.038,0-0.057,0c-2.579,0-4.872,1.649-5.69,4.099l-22.102,66.153l-85.161,8.216
			c-13.084,1.425-26.141-3.546-34.925-13.3c-2.218-2.461-6.012-2.66-8.474-0.442c-2.462,2.217-2.661,6.011-0.443,8.474
			c8.823,9.797,20.976,15.862,33.853,17.222c-6.027,4.718-11.679,11.821-15.834,22.466l-21.339,1.243
			c-1.655,0.097-3.196,0.873-4.258,2.147L1.393,377.714c-1.049,1.257-1.539,2.889-1.355,4.517c0.184,1.628,1.024,3.109,2.328,4.102
			l4.422,3.366c1.083,0.824,2.361,1.226,3.631,1.226c1.687,0,3.36-0.709,4.542-2.077l15.978-18.489l26.501,5.656l-12.416,11.541
			c-1.293,1.202-1.991,2.912-1.909,4.676l1.559,33.222c0.136,2.904,2.334,5.292,5.217,5.668l7.773,1.014
			c0.259,0.034,0.518,0.051,0.776,0.051c1.452,0,2.866-0.527,3.968-1.499c1.298-1.145,2.039-2.794,2.032-4.525l-0.097-24.014
			l40.668-20.582c0.179-0.091,0.354-0.19,0.523-0.299c6.259-4.002,10.33-9.002,12.951-14.178c15.493,3.36,36.9,7.707,53.713,9.999
			l-3.182,19.669l-26.194,21.95c-2.527,2.117-2.872,5.877-0.772,8.419l3.124,3.783c1.174,1.422,2.887,2.18,4.629,2.18
			c1.005,0,2.02-0.252,2.946-0.774l32.052-18.091c1.457-0.823,2.504-2.217,2.89-3.845l6.815-28.814l10.387,8.097l16.233,29.889
			c1.05,1.934,3.073,3.137,5.272,3.137h6.389c2.006,0,3.879-1.002,4.992-2.671c1.113-1.669,1.318-3.784,0.547-5.636L221.135,373.095
			z"/>
	</g>
	<path d="M404.405,137.02c24.788,0,44.954-20.166,44.954-44.954s-20.167-44.954-44.954-44.954s-44.954,20.166-44.954,44.954
		S379.618,137.02,404.405,137.02z"/>
</g>
<g>
</g>
<g>
</g>
<g>
</g>
<g>
</g>
<g>
</g>
<g>
</g>
<g>
</g>
<g>
</g>
<g>
</g>
<g>
</g>
<g>
</g>
<g>
</g>
<g>
</g>
<g>
</g>
<g>
</g>
</svg>
